<svg width="24" height="25" viewBox="0 0 24 25" fill="none" xmlns="http://www.w3.org/2000/svg">
  <path
    d="M21 16.5V8.5C20.9996 8.14927 20.9071 7.80481 20.7315 7.50116C20.556 7.19752 20.3037 6.94536 20 6.77L13 2.77C12.696 2.59446 12.3511 2.50205 12 2.50205C11.6489 2.50205 11.304 2.59446 11 2.77L4 6.77C3.69626 6.94536 3.44398 7.19752 3.26846 7.50116C3.09294 7.80481 3.00036 8.14927 3 8.5V16.5C3.00036 16.8507 3.09294 17.1952 3.26846 17.4988C3.44398 17.8025 3.69626 18.0546 4 18.23L11 22.23C11.304 22.4055 11.6489 22.498 12 22.498C12.3511 22.498 12.696 22.4055 13 22.23L20 18.23C20.3037 18.0546 20.556 17.8025 20.7315 17.4988C20.9071 17.1952 20.9996 16.8507 21 16.5Z"
    stroke="#4862E5"
    stroke-width="2"
    stroke-linecap="round"
  />
  <path
    d="M12 16.5C14.2091 16.5 16 14.7091 16 12.5C16 10.2909 14.2091 8.5 12 8.5C9.79086 8.5 8 10.2909 8 12.5C8 14.7091 9.79086 16.5 12 16.5Z"
    stroke="#4862E5"
    stroke-width="2"
    stroke-linecap="round"
    stroke-linejoin="round"
  />
</svg>
