<svg width="1em" height="1em" viewBox="0 0 308 308" fill="none" xmlns="http://www.w3.org/2000/svg">
  <path
    d="M293.84 68.1333L201.073 5.88001C196.189 2.56297 190.452 0.726167 184.55 0.590171C178.647 0.454175 172.831 2.02476 167.8 5.11334L15.2333 98.9533C10.7854 101.697 7.11243 105.532 4.56304 110.094C2.01365 114.656 0.672423 119.794 0.666661 125.02V214.26C0.659093 219.283 1.88561 224.232 4.23841 228.67C6.5912 233.108 9.99823 236.9 14.16 239.713L106.927 302.12C111.811 305.437 117.548 307.274 123.45 307.41C129.352 307.546 135.169 305.975 140.2 302.887L292.767 209.047C297.215 206.303 300.888 202.468 303.437 197.906C305.986 193.344 307.328 188.206 307.333 182.98V93.5867C307.341 88.5634 306.114 83.6151 303.762 79.1769C301.409 74.7387 298.002 70.9464 293.84 68.1333Z"
    stroke="currentColor"
    stroke-linecap="round"
    stroke-linejoin="round"
  />
  <path
    d="M123.333 307.333V184.667L4.5 110.3"
    stroke="currentColor"
    stroke-linecap="round"
    stroke-linejoin="round"
  />
  <path
    d="M123.333 184.667L303.807 79.3267"
    stroke="currentColor"
    stroke-linecap="round"
    stroke-linejoin="round"
  />
</svg>
