<svg width="3em" height="1em" viewBox="0 0 813 195" fill="none" xmlns="http://www.w3.org/2000/svg">
  <path
    d="M151.1 136.4L83.9 175.2L16.6 136.4V119.2C16.6 103.2 29.6 90.1 45.4 89.9H46C61.8 89.9 69.5 96.5 78.4 104.1C88.4 112.6 99.7 122.3 121.7 122.3H122.4C147.6 122.1 168.1 101.3 168.1 76V49L83.9 0.400024L-0.400024 48.9V81.2H2.19997C6.09997 76.7 11.3 72.4 16.6 69.4V58.7L83.9 20L151.1 58.8V76C151.1 92 138.1 105.1 122.3 105.3H121.7C106 105.3 98.7 99.1 89.4 91.2C79.4 82.6 68.1 72.9 46 72.9H45.3C20.1 73.1 -0.400024 93.9 -0.400024 119.2V146.2L83.9 194.8L168.1 146.2V114.8H165.5C161.8 119.2 156.4 123.8 151.1 126.8V136.4Z"
    fill="#0E909D"
  />
  <path
    d="M308.5 33.8H325.8V145.7H308.5V134.2C301.9 143.3 292.7 147.8 280.5 147.8C269.5 147.8 260.2 143.8 252.4 135.6C244.6 127.4 240.7 117.4 240.7 105.7C240.7 93.9 244.5 84 252.4 75.8C260.3 67.6 269.5 63.6001 280.5 63.6001C292.7 63.6001 301.9 68.1 308.5 77V33.8ZM283.2 131.3C290.4 131.3 296.5 128.9 301.3 124.1C306.1 119.1 308.5 113.1 308.5 105.7C308.5 98.3 306.1 92.3 301.3 87.5C296.5 82.5 290.4 80.1001 283.2 80.1001C276 80.1001 269.9 82.5 265.1 87.5C260.3 92.3 257.9 98.4 257.9 105.7C257.9 113.1 260.3 119.1 265.1 124.1C269.9 128.9 276 131.3 283.2 131.3Z"
    fill="#0E909D"
  />
  <path
    d="M400.7 65.8H419.1L388.4 148.3C380.7 168.9 367.8 178.8 349.4 177.7V161.5C360.3 162.1 366.4 156.9 370.7 145.8L371.5 144.2L337.6 65.7H356.5L380.3 123.7L400.7 65.8Z"
    fill="#0E909D"
  />
  <path d="M486.2 65.8H505.1L473.9 145.8H453.9L422.7 65.8H441.6L464 126.6L486.2 65.8Z" fill="#0E909D" />
  <path
    d="M526.6 113.1C529.2 125.3 538.9 132 552.2 132C561.3 132 568.2 128.6 572.8 122.1L587 130.4C579.2 142.1 567.5 147.8 552 147.8C539 147.8 528.5 143.8 520.5 136C512.5 128 508.5 117.9 508.5 105.8C508.5 93.8 512.5 83.8999 520.3 75.8999C528.1 67.6999 538.4 63.7 550.7 63.7C562.4 63.7 572 67.9 579.5 76C587 84.2 590.9 94.1999 590.9 105.9C590.9 107.7 590.7 110.1 590.3 113.1H526.6ZM573.4 99C571 86 561.9 79.3 550.5 79.3C537.7 79.3 528.8 86.8 526.4 99H573.4Z"
    fill="#0E909D"
  />
  <path
    d="M678 96.6V145.7H660.7V98.3999C660.7 86.3999 653.8 79.8999 642.8 79.8999C630.6 79.8999 622.5 87.3999 622.5 102.9V145.8H605.2V65.8H622.5V76C627.8 67.8 635.9 63.7 647.3 63.7C665.7 63.7 678 76.2 678 96.6Z"
    fill="#0E909D"
  />
  <path
    d="M696.3 50.6C692 46.1 692 39.4 696.3 35.1C700.6 30.6 707.7 30.6 712 35.1C716.3 39.4 716.3 46.1 711.8 50.6C707.5 54.9 700.8 54.9 696.3 50.6ZM695.5 145.7V65.7H712.8V145.7H695.5Z"
    fill="#0E909D"
  />
  <path
    d="M795.7 65.8H813V145.8H795.7V134.3C789.1 143.4 779.9 147.9 767.7 147.9C756.7 147.9 747.4 143.9 739.6 135.7C731.8 127.5 727.9 117.5 727.9 105.8C727.9 94 731.7 84.0999 739.6 75.8999C747.5 67.6999 756.7 63.7 767.7 63.7C779.9 63.7 789.1 68.2 795.7 77.1V65.8ZM770.5 131.3C777.7 131.3 783.8 128.9 788.6 124.1C793.4 119.1 795.8 113.1 795.8 105.7C795.8 98.3 793.4 92.3 788.6 87.5C783.8 82.5 777.7 80.1 770.5 80.1C763.3 80.1 757.2 82.5 752.4 87.5C747.6 92.3 745.2 98.4 745.2 105.7C745.2 113.1 747.6 119.1 752.4 124.1C757.2 128.9 763.3 131.3 770.5 131.3Z"
    fill="#0E909D"
  />
</svg>
