<svg width="1em" height="1em" viewBox="0 0 20 23" fill="none" xmlns="http://www.w3.org/2000/svg">
  <path
    d="M19 15.5V7.5C18.9996 7.14927 18.9071 6.80481 18.7315 6.50116C18.556 6.19752 18.3037 5.94536 18 5.77L11 1.77C10.696 1.59446 10.3511 1.50205 10 1.50205C9.64893 1.50205 9.30404 1.59446 9 1.77L2 5.77C1.69626 5.94536 1.44398 6.19752 1.26846 6.50116C1.09294 6.80481 1.00036 7.14927 1 7.5V15.5C1.00036 15.8507 1.09294 16.1952 1.26846 16.4988C1.44398 16.8025 1.69626 17.0546 2 17.23L9 21.23C9.30404 21.4055 9.64893 21.498 10 21.498C10.3511 21.498 10.696 21.4055 11 21.23L18 17.23C18.3037 17.0546 18.556 16.8025 18.7315 16.4988C18.9071 16.1952 18.9996 15.8507 19 15.5Z"
    stroke="currentColor"
    stroke-width="2"
    stroke-linecap="round"
  />
  <path
    d="M10 15.5C12.2091 15.5 14 13.7091 14 11.5C14 9.29086 12.2091 7.5 10 7.5C7.79086 7.5 6 9.29086 6 11.5C6 13.7091 7.79086 15.5 10 15.5Z"
    stroke="currentColor"
    stroke-width="2"
    stroke-linecap="round"
    stroke-linejoin="round"
  />
</svg>
