<svg width="6em" height="1em" viewBox="0 0 655 80" fill="none" xmlns="http://www.w3.org/2000/svg">
<g clip-path="url(#clip0_4050_62)">
<path d="M133.803 14.46V21.784H120.685V61.0693H113.028V21.784H99.8441V14.46H133.803Z" fill="#5977FC"/>
<path d="M182.609 41.6267H202.186C201.695 38.92 200.577 36.8774 198.822 35.5C197.069 34.1254 195.017 33.436 192.663 33.436C189.999 33.436 187.779 34.1694 186.005 35.6334C184.229 37.0987 183.097 39.096 182.609 41.6267ZM182.675 47.4867C183.207 50.016 184.429 51.9587 186.338 53.312C188.246 54.6667 190.577 55.3427 193.329 55.3427C197.146 55.3427 200.01 53.968 201.918 51.2147L207.845 54.6774C204.559 59.516 199.698 61.9347 193.262 61.9347C187.846 61.9347 183.474 60.2814 180.145 56.9747C176.815 53.668 175.151 49.484 175.151 44.4227C175.151 39.452 176.794 35.2907 180.079 31.9387C183.362 28.5867 187.581 26.9107 192.73 26.9107C197.613 26.9107 201.619 28.6214 204.747 32.0387C207.878 35.4574 209.443 39.6067 209.443 44.4894C209.443 45.2454 209.354 46.244 209.177 47.4867H182.675Z" fill="#5977FC"/>
<path d="M248.395 61.9354C243.911 61.9354 240.105 60.914 236.977 58.8727C233.846 56.8314 231.659 54.034 230.418 50.482L237.009 46.6207C238.873 51.8594 242.735 54.478 248.594 54.478C251.479 54.478 253.645 53.914 255.087 52.7847C256.529 51.6567 257.251 50.1847 257.251 48.3687C257.251 46.4647 256.473 45.0154 254.918 44.018C253.361 43.022 250.606 41.926 246.65 40.7314C244.482 39.926 242.699 39.2634 241.302 38.7434C239.905 38.2247 238.441 37.4434 236.909 36.3994C235.377 35.3567 234.234 34.0594 233.479 32.5047C232.725 30.9514 232.349 29.1314 232.349 27.0447C232.349 22.9167 233.813 19.6434 236.743 17.2234C239.673 14.8047 243.201 13.594 247.329 13.594C251.058 13.594 254.321 14.5047 257.118 16.3247C259.914 18.1447 262.067 20.6527 263.577 23.8487L257.118 27.5767C255.163 23.2274 251.901 21.0514 247.329 21.0514C245.109 21.0514 243.334 21.574 242.002 22.6167C240.671 23.6594 240.005 25.07 240.005 26.8447C240.005 28.5407 240.686 29.878 242.047 30.8554C243.409 31.8327 245.874 32.866 249.447 33.9527C251.19 34.61 252.465 35.0914 253.274 35.394C254.085 35.6994 255.245 36.1367 256.759 36.7074C258.273 37.278 259.405 37.878 260.153 38.5074C260.902 39.1367 261.705 39.9234 262.563 40.8687C263.422 41.8127 264.027 42.8914 264.379 44.1047C264.731 45.3194 264.909 46.69 264.909 48.218C264.909 52.4354 263.387 55.7754 260.347 58.2394C257.306 60.7034 253.322 61.9354 248.395 61.9354Z" fill="#5977FC"/>
<path d="M156.508 26.9112C160.324 26.9112 163.411 28.1326 165.763 30.5739C168.115 33.0152 169.292 36.3659 169.292 40.6286V61.0699H162.1V41.3606C162.1 38.8752 161.435 36.9659 160.103 35.6339C158.771 34.3019 156.951 33.6366 154.644 33.6366C152.114 33.6366 150.071 34.4246 148.518 36.0006C146.964 37.5766 146.187 39.9846 146.187 43.2246V61.0699H138.996V14.4606H146.187V32.0379C148.362 28.6206 151.803 26.9112 156.508 26.9112Z" fill="#5977FC"/>
<path d="M373.106 52.0474C375.104 54.0674 377.612 55.0767 380.63 55.0767C383.648 55.0767 386.157 54.0674 388.154 52.0474C390.152 50.0274 391.15 47.486 391.15 44.4234C391.15 41.3607 390.152 38.8194 388.154 36.7994C386.157 34.7794 383.648 33.77 380.63 33.77C377.612 33.77 375.104 34.7794 373.106 36.7994C371.109 38.8194 370.11 41.3607 370.11 44.4234C370.11 47.486 371.109 50.0274 373.106 52.0474ZM391.15 27.7767H398.342V61.07H391.15V56.2754C388.442 60.0487 384.558 61.9354 379.498 61.9354C374.925 61.9354 371.02 60.238 367.78 56.842C364.538 53.446 362.918 49.3074 362.918 44.4234C362.918 39.4954 364.538 35.346 367.78 31.9714C371.02 28.5994 374.925 26.9114 379.498 26.9114C384.558 26.9114 388.442 28.7754 391.15 32.5047V27.7767Z" fill="#5977FC"/>
<path d="M287.678 61.9354C282.66 61.9354 278.478 60.2487 275.127 56.8754C271.774 53.502 270.099 49.3514 270.099 44.4234C270.099 39.4527 271.774 35.2914 275.127 31.938C278.478 28.5874 282.66 26.9114 287.678 26.9114C290.918 26.9114 293.871 27.6887 296.534 29.242C299.198 30.7967 301.195 32.882 302.527 35.5007L296.334 39.0967C295.579 37.498 294.436 36.2447 292.904 35.334C291.372 34.4247 289.608 33.9687 287.611 33.9687C284.682 33.9687 282.228 34.9674 280.254 36.966C278.278 38.9634 277.291 41.45 277.291 44.4234C277.291 47.398 278.278 49.8834 280.254 51.8807C282.228 53.878 284.682 54.8767 287.611 54.8767C289.564 54.8767 291.328 54.4114 292.904 53.4794C294.48 52.546 295.668 51.3047 296.467 49.75L302.659 53.2794C301.239 55.942 299.198 58.0514 296.534 59.6047C293.871 61.158 290.918 61.9354 287.678 61.9354Z" fill="#5977FC"/>
<path d="M315.645 52.0474C317.643 54.0674 320.151 55.0767 323.169 55.0767C326.187 55.0767 328.696 54.0674 330.693 52.0474C332.691 50.0274 333.689 47.486 333.689 44.4234C333.689 41.3607 332.691 38.8194 330.693 36.7994C328.696 34.7794 326.187 33.77 323.169 33.77C320.151 33.77 317.643 34.7794 315.645 36.7994C313.648 38.8194 312.649 41.3607 312.649 44.4234C312.649 47.486 313.648 50.0274 315.645 52.0474ZM333.689 27.7767H340.881V61.07H333.689V56.2754C330.981 60.0487 327.097 61.9354 322.037 61.9354C317.464 61.9354 313.559 60.238 310.319 56.842C307.077 53.446 305.457 49.3074 305.457 44.4234C305.457 39.4954 307.077 35.346 310.319 31.9714C313.559 28.5994 317.464 26.9114 322.037 26.9114C327.097 26.9114 330.981 28.7754 333.689 32.5047V27.7767Z" fill="#5977FC"/>
<path d="M349.271 12.4624H356.461V61.0704H349.271V12.4624Z" fill="#5977FC"/>
<path d="M416.919 52.0474C418.916 54.0674 421.423 55.0767 424.443 55.0767C427.46 55.0767 429.969 54.0674 431.967 52.0474C433.964 50.0274 434.963 47.486 434.963 44.4234C434.963 41.3607 433.964 38.8194 431.967 36.7994C429.969 34.7794 427.46 33.77 424.443 33.77C421.423 33.77 418.916 34.7794 416.919 36.7994C414.921 38.8194 413.921 41.3607 413.921 44.4234C413.921 47.486 414.921 50.0274 416.919 52.0474ZM425.575 26.9114C430.145 26.9114 434.053 28.5994 437.293 31.9714C440.533 35.346 442.155 39.4954 442.155 44.4234C442.155 49.3074 440.533 53.446 437.293 56.842C434.053 60.238 430.145 61.9354 425.575 61.9354C420.513 61.9354 416.629 60.0487 413.921 56.2754V61.07H406.731V14.4607H413.921V32.5047C416.629 28.7754 420.513 26.9114 425.575 26.9114Z" fill="#5977FC"/>
<path d="M448.679 12.4624H455.869V61.0704H448.679V12.4624Z" fill="#5977FC"/>
<path d="M469.784 41.6267H489.362C488.871 38.92 487.752 36.8774 485.998 35.5C484.244 34.1254 482.192 33.436 479.839 33.436C477.175 33.436 474.955 34.1694 473.18 35.6334C471.404 37.0987 470.272 39.096 469.784 41.6267ZM469.851 47.4867C470.383 50.016 471.604 51.9587 473.514 53.312C475.422 54.6667 477.752 55.3427 480.504 55.3427C484.322 55.3427 487.186 53.968 489.094 51.2147L495.02 54.6774C491.735 59.516 486.874 61.9347 480.438 61.9347C475.022 61.9347 470.65 60.2814 467.32 56.9747C463.991 53.668 462.327 49.484 462.327 44.4227C462.327 39.452 463.97 35.2907 467.255 31.9387C470.538 28.5867 474.756 26.9107 479.906 26.9107C484.788 26.9107 488.795 28.6214 491.923 32.0387C495.054 35.4574 496.619 39.6067 496.619 44.4894C496.619 45.2454 496.53 46.244 496.352 47.4867H469.851Z" fill="#5977FC"/>
<path d="M529.426 61.0695L516.728 14.4601H524.754L534.572 50.8841L545.158 14.4601H552.216L562.737 50.8815L572.525 14.4601H580.068L567.398 61.0695H558.542L548.678 26.9228L538.754 61.0695H529.426Z" fill="#5977FC"/>
<path d="M590.437 52.0474C592.434 54.0674 594.942 55.0767 597.961 55.0767C600.978 55.0767 603.488 54.0674 605.485 52.0474C607.482 50.0274 608.481 47.486 608.481 44.4234C608.481 41.3607 607.482 38.8194 605.485 36.7994C603.488 34.7794 600.978 33.77 597.961 33.77C594.942 33.77 592.434 34.7794 590.437 36.7994C588.44 38.8194 587.441 41.3607 587.441 44.4234C587.441 47.486 588.44 50.0274 590.437 52.0474ZM608.481 27.7767H615.673V61.07H608.481V56.2754C605.773 60.0487 601.889 61.9354 596.829 61.9354C592.256 61.9354 588.35 60.238 585.11 56.842C581.869 53.446 580.249 49.3074 580.249 44.4234C580.249 39.4954 581.869 35.346 585.11 31.9714C588.35 28.5994 592.256 26.9114 596.829 26.9114C601.889 26.9114 605.773 28.7754 608.481 32.5047V27.7767Z" fill="#5977FC"/>
<path d="M646.501 27.7771H654.158L641.373 62.1344C638.178 70.7464 632.761 74.8304 625.127 74.3864V67.6611C627.391 67.7944 629.21 67.3171 630.586 66.2291C631.962 65.1411 633.094 63.4437 633.982 61.1357L634.315 60.4704L620.199 27.7771H628.057L637.983 51.9437L646.501 27.7771Z" fill="#5977FC"/>
<path d="M34.3693 -2.36543e-06L0 19.8427V59.5267L34.3693 79.3707L68.7373 59.5267V19.8427L34.3693 -2.36543e-06ZM6.76267 55.624V23.7453L34.3693 7.80666L61.9747 23.7453V55.624L34.3693 71.5627L6.76267 55.624Z" fill="#5977FC"/>
<path d="M11.6809 40.074V66.2713L34.3689 79.37L57.0569 66.2713V40.074L34.3689 26.9753L11.6809 40.074ZM18.4436 62.3673V43.978L34.3689 34.7833L50.2942 43.978V62.3673L34.3689 71.5633L18.4436 62.3673Z" fill="#5977FC"/>
</g>
<defs>
<clipPath id="clip0_4050_62">
<rect width="654.158" height="79.3707" fill="white"/>
</clipPath>
</defs>
</svg>
