<svg width="1em" height="1em" viewBox="0 0 276 306" fill="none" xmlns="http://www.w3.org/2000/svg">
  <path
    d="M275.25 214V92C275.245 86.6514 273.833 81.3983 271.156 76.7677C268.479 72.1371 264.632 68.2918 260 65.6175L153.25 4.61747C148.613 1.94054 143.354 0.53125 138 0.53125C132.646 0.53125 127.387 1.94054 122.75 4.61747L16 65.6175C11.368 68.2918 7.5207 72.1371 4.84404 76.7677C2.16738 81.3983 0.755486 86.6514 0.75 92V214C0.755486 219.349 2.16738 224.602 4.84404 229.232C7.5207 233.863 11.368 237.708 16 240.382L122.75 301.382C127.387 304.059 132.646 305.469 138 305.469C143.354 305.469 148.613 304.059 153.25 301.382L260 240.382C264.632 237.708 268.479 233.863 271.156 229.232C273.833 224.602 275.245 219.349 275.25 214Z"
    stroke="currentColor"
    stroke-linecap="round"
  />
  <path
    d="M138 214C171.689 214 199 186.689 199 153C199 119.311 171.689 92 138 92C104.311 92 77 119.311 77 153C77 186.689 104.311 214 138 214Z"
    stroke="currentColor"
    stroke-linecap="round"
    stroke-linejoin="round"
  />
</svg>
