<svg width="1em" height="1em" viewBox="0 0 367 365" fill="none" stroke="currentColor" stroke-linecap="round" stroke-linejoin="round">
<path id="stack_2" d="M163.75 363.25V62.3125C163.75 56.9916 161.623 51.8886 157.837 48.1262C154.051 44.3637 148.917 42.25 143.562 42.25H42.625C31.9169 42.25 21.6473 46.4774 14.0756 54.0023C6.50378 61.5272 2.25 71.7332 2.25 82.375V323.125C2.25 333.767 6.50378 343.973 14.0756 351.498C21.6473 359.023 31.9169 363.25 42.625 363.25H284.875C295.583 363.25 305.853 359.023 313.424 351.498C320.996 343.973 325.25 333.767 325.25 323.125V222.812C325.25 217.492 323.123 212.389 319.337 208.626C315.551 204.864 310.417 202.75 305.062 202.75H2.25" />
<path id="square" d="M344.125 3.25H223.375C212.26 3.25 203.25 12.2603 203.25 23.375V144.125C203.25 155.24 212.26 164.25 223.375 164.25H344.125C355.24 164.25 364.25 155.24 364.25 144.125V23.375C364.25 12.2603 355.24 3.25 344.125 3.25Z" fill="currentColor" />
</svg>