<svg width="1em" height="1em" viewBox="0 0 363 399" fill="none" xmlns="http://www.w3.org/2000/svg">
  <path
    d="M119 320C147.719 320 171 296.719 171 268C171 239.281 147.719 216 119 216C90.2812 216 67 239.281 67 268C67 296.719 90.2812 320 119 320Z"
    stroke="var(--color-pink)"
    stroke-linecap="round"
    stroke-linejoin="round"
  />
  <path
    d="M237 320.411V215.589C236.995 210.994 235.781 206.48 233.48 202.502C231.179 198.523 227.871 195.219 223.889 192.922L132.111 140.511C128.125 138.211 123.603 137 119 137C114.397 137 109.875 138.211 105.889 140.511L14.1111 192.922C10.1288 195.219 6.82107 198.523 4.51983 202.502C2.21858 206.48 1.00472 210.994 1 215.589V320.411C1.00472 325.006 2.21858 329.52 4.51983 333.498C6.82107 337.477 10.1288 340.781 14.1111 343.078L105.889 395.489C109.875 397.789 114.397 399 119 399C123.603 399 128.125 397.789 132.111 395.489L223.889 343.078C227.871 340.781 231.179 337.477 233.48 333.498C235.781 329.52 236.995 325.006 237 320.411Z"
    stroke="currentColor"
    stroke-linecap="round"
  />
  <path
    d="M295 300.913V170.087C294.994 164.351 293.482 158.718 290.615 153.752C287.748 148.787 283.628 144.663 278.667 141.795L164.333 76.3819C159.367 73.5113 153.734 72 148 72C142.266 72 136.633 73.5113 131.667 76.3819L17.3333 141.795C12.3723 144.663 8.25168 148.787 5.38487 153.752C2.51807 158.718 1.00588 164.351 1 170.087V300.913C1.00588 306.649 2.51807 312.282 5.38487 317.248C8.25168 322.213 12.3723 326.337 17.3333 329.205L131.667 394.618C136.633 397.489 142.266 399 148 399C153.734 399 159.367 397.489 164.333 394.618L278.667 329.205C283.628 326.337 287.748 322.213 290.615 317.248C293.482 312.282 294.994 306.649 295 300.913Z"
    stroke="currentColor"
    stroke-linecap="round"
  />
  <path
    d="M362 279.616V120.384C361.993 113.403 360.136 106.547 356.616 100.503C353.096 94.4589 348.036 89.44 341.944 85.9496L201.556 6.33328C195.458 2.83938 188.541 1 181.5 1C174.459 1 167.542 2.83938 161.444 6.33328L21.0556 85.9496C14.9639 89.44 9.90427 94.4589 6.38414 100.503C2.86402 106.547 1.00721 113.403 1 120.384V279.616C1.00721 286.597 2.86402 293.453 6.38414 299.497C9.90427 305.541 14.9639 310.56 21.0556 314.05L161.444 393.667C167.542 397.161 174.459 399 181.5 399C188.541 399 195.458 397.161 201.556 393.667L341.944 314.05C348.036 310.56 353.096 305.541 356.616 299.497C360.136 293.453 361.993 286.597 362 279.616Z"
    stroke="currentColor"
    stroke-linecap="round"
  />
</svg>
